<svg xmlns="http://www.w3.org/2000/svg" width="43" height="45" fill="none" xmlns:v="https://vecta.io/nano"><g filter="url(#A)"><path d="M35.147 13.648l-.022-.022L21.501 0 7.88 13.621l-.027.026c-2.083 2.095-3.406 4.825-3.759 7.758s.285 5.899 1.812 8.428 3.855 4.475 6.614 5.528 5.792 1.155 8.615.287a1.25 1.25 0 0 1 .729 0c2.823.868 5.855.767 8.615-.287s5.087-2.999 6.614-5.528 2.164-5.495 1.812-8.427-1.675-5.663-3.758-7.758zM12.723 22.63c-.066.066-.119.145-.155.232s-.054.179-.054.273a13.22 13.22 0 0 0 1.965 6.803c.029.046.042.101.038.155s-.025.106-.06.148-.083.071-.136.084a.26.26 0 0 1-.159-.012 7.92 7.92 0 0 1-2.536-1.707 7.95 7.95 0 0 1-2.327-5.614c-.001-2.106.833-4.126 2.32-5.617l9.882-9.882 9.882 9.882c1.487 1.491 2.322 3.511 2.32 5.617s-.838 4.125-2.327 5.614a7.92 7.92 0 0 1-2.536 1.707.26.26 0 0 1-.295-.073c-.035-.042-.056-.093-.06-.148s.009-.109.038-.155a13.22 13.22 0 0 0 1.966-6.802c0-.094-.019-.187-.055-.273s-.089-.165-.155-.232l-4.674-4.958a.26.26 0 0 0-.332 0c-.047.039-.078.093-.089.152s0 .121.029.174c1.815 3.285.254 8.004-2.349 10.607l-.014.014a1.92 1.92 0 0 1-2.699-.001l-.013-.013c-2.604-2.604-4.165-7.322-2.349-10.607.03-.053.04-.114.029-.174s-.042-.114-.089-.152a.26.26 0 0 0-.332 0l-4.675 4.957z" fill="#f53838"/></g><defs><filter id="A" x="0" y="0" width="43" height="44.232" filterUnits="userSpaceOnUse" color-interpolation-filters="sRGB"><feFlood flood-opacity="0" result="A"/><feColorMatrix in="SourceAlpha" values="0 0 0 0 0 0 0 0 0 0 0 0 0 0 0 0 0 0 127 0" result="B"/><feOffset dy="4"/><feGaussianBlur stdDeviation="2"/><feComposite in2="B" operator="out"/><feColorMatrix values="0 0 0 0 0 0 0 0 0 0 0 0 0 0 0 0 0 0 0.25 0"/><feBlend in2="A"/><feBlend in="SourceGraphic"/></filter></defs></svg>